<svg id="Capa_1" enable-background="new 0 0 512 512" height="512" viewBox="0 0 512 512" width="512" xmlns="http://www.w3.org/2000/svg"><g><path d="m239.968 288.579c-4.142 0-7.5 3.358-7.5 7.5v160.325c0 22.385-18.211 40.597-40.597 40.597h-123.931c-7.146 0-13.917-3.103-18.58-8.513-4.688-5.44-6.767-12.645-5.703-19.767 9.978-66.825 42.009-231.948 123.735-321.735 6.793-7.463 16.768-11.743 27.367-11.743 20.792 0 37.708 16.916 37.708 37.708v9.768c0 15.126-5.891 29.347-16.586 40.043l-52.426 52.426c-4.209-6.41-11.457-10.654-19.681-10.654-12.976 0-23.533 10.557-23.533 23.532s10.557 23.532 23.533 23.532c11.249 0 20.675-7.936 22.985-18.502l59.728-59.728c13.529-13.528 20.98-31.516 20.98-50.649v-175.219c0-4.142-3.358-7.5-7.5-7.5s-7.5 3.358-7.5 7.5v128.675c-9.579-9.82-22.94-15.933-37.708-15.933-14.812 0-28.831 6.067-38.46 16.646-36.462 40.058-67.132 97.99-91.159 172.188-19.65 60.683-30.596 119.105-36.319 157.43-1.708 11.443 1.636 23.024 9.176 31.774 7.515 8.719 18.428 13.72 29.943 13.72h123.931c30.656 0 55.597-24.94 55.597-55.597v-160.324c0-4.142-3.358-7.5-7.5-7.5zm-96.194 8.018c-4.705 0-8.533-3.828-8.533-8.532s3.828-8.532 8.533-8.532 8.532 3.828 8.532 8.532-3.827 8.532-8.532 8.532z"/><path d="m170.536 218.632c-2.929 2.929-2.929 7.678 0 10.606 1.464 1.464 3.384 2.197 5.303 2.197s3.839-.732 5.303-2.197l14.195-14.195c2.929-2.929 2.929-7.678 0-10.606-2.929-2.929-7.678-2.929-10.606 0z"/><path d="m189.897 360.99-22.044 6.012c-3.996 1.09-6.352 5.213-5.262 9.209.91 3.335 3.933 5.528 7.231 5.528.653 0 1.317-.086 1.978-.266l22.044-6.012c3.996-1.09 6.352-5.213 5.262-9.209-1.089-3.996-5.212-6.353-9.209-5.262z"/><path d="m183.855 447.871c12.976 0 23.532-10.557 23.532-23.532s-10.557-23.532-23.532-23.532-23.532 10.557-23.532 23.532 10.556 23.532 23.532 23.532zm0-32.064c4.705 0 8.532 3.828 8.532 8.532s-3.828 8.532-8.532 8.532-8.532-3.828-8.532-8.532 3.827-8.532 8.532-8.532z"/><path d="m90.374 411.02c-2.929 2.929-2.929 7.678 0 10.606l8.016 8.016c1.464 1.464 3.384 2.197 5.303 2.197s3.839-.732 5.303-2.197c2.929-2.929 2.929-7.678 0-10.606l-8.016-8.016c-2.928-2.929-7.677-2.929-10.606 0z"/><path d="m200.889 183.339c1.919 0 3.839-.732 5.303-2.197 2.929-2.929 2.929-7.678 0-10.606l-8.016-8.016c-2.929-2.929-7.678-2.929-10.606 0-2.929 2.929-2.929 7.678 0 10.606l8.016 8.016c1.464 1.464 3.384 2.197 5.303 2.197z"/><path d="m145.262 422.835c0-4.142-3.358-7.5-7.5-7.5h-.08c-4.142 0-7.46 3.358-7.46 7.5s3.398 7.5 7.54 7.5 7.5-3.357 7.5-7.5z"/><path d="m151.274 242.974c0-4.142-3.358-7.5-7.5-7.5h-.081c-4.142 0-7.459 3.358-7.459 7.5s3.398 7.5 7.54 7.5 7.5-3.358 7.5-7.5z"/><path d="m206.4 338.15c4.142 0 7.5-3.358 7.5-7.5s-3.358-7.5-7.5-7.5h-.081c-4.142 0-7.459 3.358-7.459 7.5s3.398 7.5 7.54 7.5z"/><path d="m111.274 324.137c0-4.142-3.358-7.5-7.5-7.5h-.081c-4.142 0-7.46 3.358-7.46 7.5s3.398 7.5 7.541 7.5 7.5-3.358 7.5-7.5z"/><path d="m74.555 456.919c-4.142 0-7.46 3.358-7.46 7.5s3.398 7.5 7.541 7.5 7.5-3.358 7.5-7.5-3.358-7.5-7.5-7.5z"/><path d="m122.438 451.1-8.016 8.016c-2.929 2.929-2.929 7.678 0 10.606 1.464 1.464 3.384 2.197 5.303 2.197s3.839-.732 5.303-2.197l8.016-8.016c2.929-2.929 2.929-7.678 0-10.606-2.928-2.929-7.677-2.929-10.606 0z"/><path d="m483.179 466.505c-5.723-38.325-16.668-96.747-36.319-157.43-24.027-74.197-54.697-132.13-91.159-172.188-9.629-10.579-23.647-16.646-38.46-16.646-14.769 0-28.13 6.114-37.708 15.933v-128.674c0-4.142-3.358-7.5-7.5-7.5s-7.5 3.358-7.5 7.5v175.218c0 19.133 7.451 37.121 20.98 50.649l59.728 59.728c2.311 10.566 11.736 18.502 22.985 18.502 12.976 0 23.533-10.557 23.533-23.532s-10.557-23.532-23.533-23.532c-8.224 0-15.472 4.244-19.681 10.654l-52.426-52.426c-10.696-10.696-16.586-24.917-16.586-40.043v-9.768c0-20.792 16.916-37.708 37.708-37.708 10.599 0 20.574 4.28 27.367 11.743 81.726 89.787 113.757 254.91 123.735 321.735 1.063 7.123-1.015 14.327-5.703 19.767-4.662 5.41-11.434 8.513-18.58 8.513h-123.931c-22.385 0-40.597-18.211-40.597-40.597v-160.324c0-4.142-3.358-7.5-7.5-7.5s-7.5 3.358-7.5 7.5v160.325c0 30.656 24.94 55.597 55.597 55.597h123.931c11.515 0 22.428-5.001 29.942-13.72 7.54-8.751 10.885-20.332 9.177-31.776zm-114.953-186.973c4.705 0 8.533 3.828 8.533 8.532s-3.828 8.532-8.533 8.532-8.532-3.828-8.532-8.532 3.827-8.532 8.532-8.532z"/><path d="m363.662 356.858c-1.869 3.372-2.936 7.247-2.936 11.367 0 12.976 10.557 23.533 23.533 23.533s23.532-10.557 23.532-23.533-10.557-23.532-23.532-23.532c-3.39 0-6.612.726-9.526 2.022l-90.756-90.755c-15.426-15.426-40.526-15.426-55.952 0l-90.756 90.755c-2.915-1.296-6.136-2.022-9.526-2.022-12.976 0-23.532 10.557-23.532 23.532 0 12.976 10.557 23.533 23.532 23.533 12.976 0 23.533-10.557 23.533-23.533 0-4.121-1.068-7.995-2.937-11.367l90.292-90.292c9.578-9.577 25.161-9.577 34.739 0zm29.129 11.368c0 4.705-3.828 8.533-8.532 8.533-4.705 0-8.533-3.828-8.533-8.533s3.828-8.532 8.533-8.532c4.704-.001 8.532 3.827 8.532 8.532zm-265.049 8.532c-4.705 0-8.532-3.828-8.532-8.533s3.828-8.532 8.532-8.532c4.705 0 8.533 3.828 8.533 8.532-.001 4.706-3.828 8.533-8.533 8.533z"/><path d="m328.145 223.419c1.919 0 3.839-.732 5.303-2.197l8.016-8.016c2.929-2.929 2.929-7.678 0-10.606-2.929-2.929-7.678-2.929-10.606 0l-8.016 8.016c-2.929 2.929-2.929 7.678 0 10.606 1.464 1.465 3.384 2.197 5.303 2.197z"/><path d="m332.807 390.966c1.077.539 2.221.793 3.349.793 2.751 0 5.4-1.52 6.714-4.147 1.853-3.705.351-8.21-3.354-10.062l-16.032-8.017c-3.705-1.852-8.209-.351-10.062 3.354s-.351 8.21 3.354 10.062z"/><path d="m328.145 471.919c12.976 0 23.532-10.557 23.532-23.532s-10.557-23.532-23.532-23.532-23.532 10.557-23.532 23.532 10.556 23.532 23.532 23.532zm0-32.064c4.705 0 8.532 3.828 8.532 8.532s-3.828 8.532-8.532 8.532-8.532-3.828-8.532-8.532 3.827-8.532 8.532-8.532z"/><path d="m403.003 419.036c-2.929 2.929-2.929 7.678 0 10.606 1.464 1.464 3.384 2.197 5.303 2.197s3.839-.732 5.303-2.197l8.016-8.016c2.929-2.929 2.929-7.678 0-10.606-2.929-2.929-7.678-2.929-10.606 0z"/><path d="m325.432 170.536-8.016-8.016c-2.929-2.929-7.678-2.929-10.606 0-2.929 2.929-2.929 7.678 0 10.606l8.016 8.016c1.464 1.464 3.384 2.197 5.303 2.197s3.839-.732 5.303-2.197c2.929-2.929 2.929-7.678 0-10.606z"/><path d="m360.209 400.807c-4.142 0-7.5 3.358-7.5 7.5s3.358 7.5 7.5 7.5h.081c4.142 0 7.46-3.358 7.46-7.5s-3.398-7.5-7.541-7.5z"/><path d="m360.726 242.974c0 4.142 3.358 7.5 7.5 7.5h.081c4.142 0 7.459-3.358 7.459-7.5s-3.398-7.5-7.54-7.5-7.5 3.358-7.5 7.5z"/><path d="m304.017 336.677c-4.142 0-7.5 3.358-7.5 7.5s3.358 7.5 7.5 7.5h.08c4.142 0 7.46-3.358 7.46-7.5s-3.398-7.5-7.54-7.5z"/><path d="m408.226 316.637c-4.142 0-7.5 3.358-7.5 7.5s3.358 7.5 7.5 7.5h.081c4.142 0 7.46-3.358 7.46-7.5s-3.399-7.5-7.541-7.5z"/><path d="m437.445 471.919c4.142 0 7.46-3.358 7.46-7.5s-3.398-7.5-7.541-7.5-7.5 3.358-7.5 7.5 3.358 7.5 7.5 7.5z"/><path d="m378.955 451.1c-2.929 2.929-2.929 7.678 0 10.606l8.016 8.016c1.464 1.464 3.384 2.197 5.303 2.197s3.839-.732 5.303-2.197c2.929-2.929 2.929-7.678 0-10.606l-8.016-8.016c-2.928-2.929-7.677-2.929-10.606 0z"/></g></svg>