<?xml version="1.0"?>
<svg xmlns="http://www.w3.org/2000/svg" viewBox="0 0 512 512" width="512" height="512"><g id="outline"><path d="M193.833,259.115,119.51,276.6A71.724,71.724,0,0,0,64,346.688V496H80V346.688a55.786,55.786,0,0,1,43.174-54.511L197.5,274.689A23.908,23.908,0,0,0,216,251.327V232a8,8,0,0,0-8-8H184a8.009,8.009,0,0,1-8-8v-8h56V340l-16,12v-9.988a30.012,30.012,0,0,0-52.6-19.763l-33.588,38.386A71.98,71.98,0,0,0,112,408.047V488a8,8,0,0,0,8,8h48.88A47.173,47.173,0,0,0,216,448.88v-36.6l40-26.666,40,26.666v36.6A47.173,47.173,0,0,0,343.12,496H392a8,8,0,0,0,8-8V408.047a71.98,71.98,0,0,0-17.814-47.412L348.6,322.249A30.012,30.012,0,0,0,296,342.012V352l-16-12V168a40.045,40.045,0,0,0-40-40H167.01c5.326-14.931,9.829-27.94,10.309-30.556a80,80,0,1,1,142.125,63.174C304.107,180.5,296,203.125,296,226.039v25.288a23.908,23.908,0,0,0,18.5,23.362l74.323,17.488A55.786,55.786,0,0,1,432,346.688V496h16V346.688A71.724,71.724,0,0,0,392.49,276.6l-74.322-17.488A7.969,7.969,0,0,1,312,251.327V226.039c0-19.347,6.955-38.59,20.114-55.649a95.6,95.6,0,0,0,19.244-69.615c-5-43.879-40.483-79.274-84.37-84.163A96.05,96.05,0,0,0,161.6,94.477c-1.1,4.677-15.968,45.843-25.108,70.769A8,8,0,0,0,144,176h16v40a24.028,24.028,0,0,0,24,24h16v11.327A7.969,7.969,0,0,1,193.833,259.115ZM200,448.88A31.155,31.155,0,0,1,168.88,480H128V408.047a55.988,55.988,0,0,1,13.855-36.876l33.588-38.387A14.013,14.013,0,0,1,200,342.012V379.47l-6.9,4.138-29.526-14.763-7.156,14.31,20.419,10.21L165.783,400H144v16h13.394l-13.086,45.8,15.384,4.4,5.154-18.038,13.5,13.5,11.314-11.314L169.874,430.56l4.95-17.326L200,398.13v50.75ZM312,342.012a14.013,14.013,0,0,1,24.557-9.228l33.588,38.386A55.993,55.993,0,0,1,384,408.047V480H343.12A31.155,31.155,0,0,1,312,448.88V398.13l25.176,15.1,4.95,17.326-19.783,19.783,11.314,11.314,13.5-13.5,5.154,18.038,15.384-4.4L354.606,416H368V400H346.217l-11.058-6.635,20.419-10.21-7.156-14.31L318.9,383.608,312,379.47V342.012ZM155.444,160c1.792-4.911,3.784-10.386,5.814-16H240a24.028,24.028,0,0,1,24,24V344a8,8,0,0,0,3.2,6.4L296,372v21.052l-35.562-23.708a8,8,0,0,0-8.876,0L216,393.052V372l28.8-21.6A8,8,0,0,0,248,344V208a16.019,16.019,0,0,0-16-16H176V168a8,8,0,0,0-8-8Z"/><path d="M20.938,295.391a8,8,0,0,0,8.719-1.734l24-24L42.343,258.343l-7.109,7.109A80.147,80.147,0,0,1,112,208h8V192h-8a96.108,96.108,0,0,0-96,96A8,8,0,0,0,20.938,295.391Z"/><path d="M32,80H16a96.108,96.108,0,0,0,96,96h8a8,8,0,0,0,5.657-13.657l-24-24L90.343,149.657l9.407,9.406A80.129,80.129,0,0,1,32,80Z"/></g></svg>
