<svg id="Layer_1" enable-background="new 0 0 512 512" height="512" viewBox="0 0 512 512" width="512" xmlns="http://www.w3.org/2000/svg"><g><path d="m417.576 58.426c-37.543-37.676-87.396-58.426-140.376-58.426-29.831 0-59.217 6.64-84.991 19.204-33.807 15.888-62.438 40.777-82.803 71.981-20.986 32.155-32.078 69.483-32.078 107.95v26.773l-35.771 68.724c-7.065 13.388-7.398 27.239-.912 38.009 6.492 10.779 18.875 16.96 33.973 16.96h2.71v52.979c0 29.512 23.987 53.521 53.47 53.521.755 0 1.509-.057 2.255-.17l35.875-5.455v36.241c0 7.214 3.116 14.065 8.549 18.795 4.839 4.212 11.136 6.487 17.719 6.487 1.318 0 2.649-.091 3.981-.277.188-.026.376-.056.563-.089l190.973-33.99c.146-.026.29-.054.435-.084 14.321-2.988 25.12-16.077 25.12-30.447v-106.169c38.035-37.34 59.723-88.646 59.723-141.866-.206-53.103-20.951-103.054-58.415-140.651zm-26.449 265.025c-3.096 2.841-4.858 6.85-4.858 11.052l.007 112.537c-.089.373-.743.991-1.182 1.133l-186.166 33.134v-48.283c0-4.372-1.907-8.526-5.223-11.376-2.739-2.354-6.214-3.624-9.776-3.624-.75 0-1.504.056-2.255.17l-51.871 7.887c-12.482-.524-22.474-10.865-22.474-23.5v-67.979c0-8.284-6.716-15-15-15h-17.71c-4.676 0-7.567-1.264-8.274-2.438-.709-1.178-.462-4.356 1.757-8.552.016-.029.031-.059.047-.089l37.486-72.018c1.113-2.139 1.694-4.515 1.694-6.926v-30.443c0-32.629 9.406-64.288 27.201-91.554 17.337-26.565 41.727-47.751 70.53-61.268.07-.033.139-.066.208-.1 21.723-10.608 46.597-16.214 71.932-16.214 92.71 0 168.43 75.9 168.791 169.135 0 47.008-19.997 92.319-54.864 124.316z"/><path d="m313.183 165.198c-2.37-5.5-7.785-9.062-13.774-9.062h-46.602c-8.284 0-15 6.716-15 15s6.716 15 15 15h11.805l-22.71 24.048c-4.112 4.354-5.24 10.737-2.869 16.237 2.37 5.5 7.785 9.062 13.774 9.062h46.602c8.284 0 15-6.716 15-15s-6.716-15-15-15h-11.805l22.71-24.048c4.112-4.354 5.24-10.737 2.869-16.237z"/><path d="m415.145 177.909c0-32.96-26.815-59.775-59.775-59.775-1.192 0-2.377.034-3.556.103-2.834-38.273-34.881-68.548-73.865-68.548-38.072 0-69.527 28.872-73.618 65.872-43.409 2.786-77.875 38.989-77.875 83.089 0 45.911 37.351 83.261 83.261 83.261 6.065 0 12.031-.641 17.852-1.914 5.864 13.358 14.945 25.271 26.436 34.471 15.982 12.794 36.08 19.84 56.589 19.84 49.961 0 90.607-40.646 90.607-90.608 0-8.155-1.068-16.157-3.186-23.902 10.879-11.075 17.13-26.061 17.13-41.889zm-43.046 24.636c-5.863 3.993-8.128 11.547-5.428 18.107 3.007 7.306 4.531 15.06 4.531 23.046 0 33.419-27.188 60.608-60.607 60.608-28.217 0-52.466-19.14-58.972-46.544-1.026-4.325-3.919-7.972-7.896-9.957-2.105-1.051-4.4-1.579-6.698-1.579-2.043 0-4.089.417-6.006 1.255-6.723 2.938-13.891 4.427-21.304 4.427-29.368 0-53.261-23.893-53.261-53.261s23.893-53.261 53.261-53.261c2.517 0 5.046.176 7.517.524 4.621.652 9.28-.885 12.607-4.155 3.328-3.271 4.944-7.903 4.373-12.533-.222-1.801-.334-3.641-.334-5.467 0-24.299 19.769-44.068 44.068-44.068s44.068 19.769 44.068 44.068c0 3.567-.426 7.112-1.265 10.537-1.392 5.68.646 11.652 5.218 15.298 4.573 3.646 10.849 4.301 16.076 1.68 4.15-2.082 8.633-3.137 13.323-3.137 16.418 0 29.775 13.357 29.775 29.775 0 9.864-4.877 19.074-13.046 24.637z"/></g></svg>