<?xml version="1.0" encoding="iso-8859-1"?>
<!-- Generator: Adobe Illustrator 19.0.0, SVG Export Plug-In . SVG Version: 6.00 Build 0)  -->
<svg version="1.1" id="Capa_1" xmlns="http://www.w3.org/2000/svg" xmlns:xlink="http://www.w3.org/1999/xlink" x="0px" y="0px"
	 viewBox="0 0 512.001 512.001" style="enable-background:new 0 0 512.001 512.001;" xml:space="preserve">
<g>
	<g>
		<path d="M117.472,197.22c4.325,0,7.83-3.506,7.83-7.83v-17.756c0-5.841-4.752-10.593-10.593-10.593h-71.1
			c-5.841,0-10.593,4.752-10.593,10.593v168.733c0,5.841,4.752,10.593,10.593,10.593h71.1c5.841,0,10.593-4.752,10.593-10.593
			V218.102c0-4.325-3.506-7.83-7.83-7.83c-4.325,0-7.83,3.506-7.83,7.83v117.198H48.677V176.701h60.964v12.688
			C109.642,193.714,113.148,197.22,117.472,197.22z"/>
	</g>
</g>
<g>
	<g>
		<path d="M484.353,202.232h-17.48v-39.99c0-18.133-14.752-32.886-32.886-32.886c-4.325,0-7.83,3.506-7.83,7.83
			c0,4.324,3.506,7.83,7.83,7.83c9.498,0,17.225,7.727,17.225,17.225v47.82v91.877v47.819c0,9.498-7.727,17.225-17.225,17.225
			H32.886c-9.498,0-17.225-7.727-17.225-17.225V162.242c0-9.498,7.727-17.225,17.225-17.225h359.33c4.325,0,7.83-3.506,7.83-7.83
			c0-4.324-3.506-7.83-7.83-7.83H32.886C14.752,129.357,0,144.109,0,162.242v187.516c0,18.133,14.752,32.886,32.886,32.886h401.102
			c18.133,0,32.886-14.752,32.886-32.886v-39.989h17.48c15.245,0,27.647-12.403,27.647-27.648v-52.242
			C512,214.634,499.597,202.232,484.353,202.232z M496.339,282.121c0,6.61-5.377,11.987-11.987,11.987h-17.48v-76.216h17.48
			c6.609,0,11.987,5.377,11.987,11.987V282.121z"/>
	</g>
</g>
<g>
</g>
<g>
</g>
<g>
</g>
<g>
</g>
<g>
</g>
<g>
</g>
<g>
</g>
<g>
</g>
<g>
</g>
<g>
</g>
<g>
</g>
<g>
</g>
<g>
</g>
<g>
</g>
<g>
</g>
</svg>
