<svg height="488pt" viewBox="-32 0 488 488" width="488pt" xmlns="http://www.w3.org/2000/svg"><path d="m400.648438 443.21875-37.285157-23.796875c-1.988281-1.269531-3.234375-3.449219-3.273437-5.808594-.207032-13.085937-6.894532-14.746093-5.882813-29.984375 1.101563-16.554687 9.082031-16.023437 10.183594-32.578125 1.101563-16.554687-6.878906-17.082031-5.78125-33.636719 1.101563-16.550781 9.082031-16.019531 10.183594-32.570312 1.097656-16.546875-6.882813-17.078125-5.785157-33.625 1.101563-16.546875 9.082032-16.019531 10.183594-32.570312 1.097656-16.546876-6.882812-17.078126-5.785156-33.625.777344-11.636719 4.945312-14.84375 7.738281-21.464844h-150.039062c.175781 1.53125.3125 3.183594.386719 5.011718.878906 20.6875-7.117188 21.027344-6.238282 41.710938.875 20.6875 8.867188 20.351562 9.738282 41.035156.878906 20.691406-7.117188 21.027344-6.238282 41.714844.875 20.6875 8.867188 20.347656 9.738282 41.035156.878906 20.691406-7.117188 21.03125-6.238282 41.722656.859375 20.382813 8.628906 20.355469 9.699219 40.136719.03125.589844-.015625 1.199219-.132813 1.78125l-3.820312 19.292969-3.769531 18.96875c-1.558594 7.859375-.859375 16 2.015625 23.480469 1.058594 2.742187 3.695312 4.550781 6.632812 4.550781h175.121094c3.847656 0 7.085938-3.066406 7.105469-6.914062.066406-13.710938-6.902344-26.492188-18.457031-33.867188zm0 0" fill="#f9cfcf"/><path d="m286.953125 383.039062c10.640625 7.429688 23.304687 11.414063 36.28125 11.414063h19.765625c5.910156 0 10.804688-4.589844 11.1875-10.488281l.023438-.339844c1.097656-16.554688 9.082031-16.023438 10.183593-32.578125 1.097657-16.550781-6.882812-17.082031-5.78125-33.636719 1.097657-16.550781 9.082031-16.019531 10.179688-32.570312.441406-6.628906-.574219-10.691406-1.878907-14.238282-1.625-4.417968-5.917968-7.28125-10.625-7.222656l-34.851562.441406c-11.53125.144532-22.433594 5.246094-29.933594 14.003907l-.503906.585937-6.90625 8.113282c-7.933594 9.320312-11.171875 21.753906-8.796875 33.761718l1.132813 5.722656c.375 1.886719.257812 3.839844-.339844 5.667969l-2.78125 8.488281c-1.175782 3.597657-1.773438 7.359376-1.773438 11.140626v11.246093c0 2.855469 1.089844 5.605469 3.046875 7.6875l10.625 11.292969c.527344.5625 1.113281 1.066406 1.746094 1.507812zm0 0" fill="#f9a7a7"/><path d="m261.144531 265.277344c1.234375-.820313 2.40625-1.730469 3.5-2.730469l3.878907-3.546875 10.476562-7v-1.15625c0-4.4375-1.46875-8.75-4.179688-12.261719l-6.296874-8.15625-10.523438-6.90625h-36.683594c2.695313 8.867188 7.046875 12.835938 7.679688 27.792969.378906 8.929688-.894532 14.066406-2.394532 18.683594h18.835938c5.585938.003906 11.046875-1.640625 15.707031-4.71875zm0 0" fill="#f9a7a7"/><path d="m389.613281 4h-346.089843l-14.960938 150.769531c-.464844 4.707031 3.230469 8.789063 7.960938 8.789063h360.085937c4.730469 0 8.429687-4.082032 7.960937-8.789063zm0 0" fill="#4671c6"/><path d="m31.359375 126.574219h370.414063l-3.214844-32.417969h-363.980469zm0 0" fill="#a4c9ff"/><path d="m170.550781 419.816406 12.667969-256.257812h-112.503906l15.945312 261.859375c.203125 3.308593-1.800781 6.355469-4.917968 7.480469l-63.136719 22.824218c-8.765625 3.167969-14.605469 11.488282-14.605469 20.804688 0 4.125 3.347656 7.472656 7.472656 7.472656h151.941406c1.675782 0 3.300782-.5625 4.617188-1.597656 7.558594-5.933594 11.96875-15.011719 11.96875-24.621094v-1.253906c0-5.582032-1.492188-11.0625-4.324219-15.878906-3.703125-6.292969-5.484375-13.535157-5.125-20.832032zm0 0" fill="#f9cfcf"/><g fill="#3762cc"><path d="m163.414062 488h-151.941406c-6.328125 0-11.472656-5.144531-11.472656-11.472656 0-10.964844 6.929688-20.839844 17.242188-24.566406l63.140624-22.824219c1.4375-.519531 2.375-1.949219 2.285157-3.476563l-15.945313-261.859375c-.070312-1.097656.320313-2.179687 1.078125-2.984375.757813-.800781 1.808594-1.257812 2.914063-1.257812h112.503906c1.09375 0 2.140625.453125 2.894531 1.242187.757813.792969 1.152344 1.863281 1.101563 2.957031l-12.667969 256.261719c-.324219 6.53125 1.257813 12.964844 4.574219 18.605469 3.191406 5.417969 4.875 11.613281 4.875 17.90625v1.25c0 10.910156-4.917969 21.03125-13.496094 27.769531-2.011719 1.578125-4.527344 2.449219-7.085938 2.449219zm-88.449218-320.441406 15.6875 257.617187c.304687 5.042969-2.796875 9.769531-7.550782 11.484375l-63.136718 22.824219c-7.15625 2.585937-11.960938 9.4375-11.960938 17.042969 0 1.914062 1.554688 3.472656 3.46875 3.472656h151.945313c.773437 0 1.535156-.265625 2.144531-.742188 6.632812-5.210937 10.441406-13.039062 10.441406-21.476562v-1.253906c0-4.867188-1.304687-9.65625-3.773437-13.847656-4.113281-6.988282-6.074219-14.960938-5.671875-23.058594l12.460937-252.0625zm95.585937 252.257812h.019531zm0 0"/><path d="m396.613281 167.558594h-360.085937c-3.386719 0-6.628906-1.4375-8.898438-3.945313-2.269531-2.507812-3.375-5.875-3.042968-9.242187l14.957031-150.765625c.199219-2.046875 1.921875-3.605469 3.980469-3.605469h346.089843c2.058594 0 3.777344 1.558594 3.980469 3.605469l14.957031 150.769531c.335938 3.363281-.777343 6.734375-3.042969 9.238281-2.273437 2.507813-5.515624 3.945313-8.894531 3.945313zm-349.46875-159.558594-14.601562 147.164062c-.113281 1.140626.246093 2.234376 1.015625 3.078126.765625.851562 1.820312 1.316406 2.964844 1.316406h360.085937c1.144531 0 2.199219-.464844 2.964844-1.3125s1.128906-1.941406 1.015625-3.082032l-14.601563-147.164062zm0 0"/><path d="m412 488h-175.121094c-4.5625 0-8.730468-2.859375-10.367187-7.117188-3.152344-8.195312-3.917969-17.078124-2.207031-25.691406l7.589843-38.261718c.054688-.265626.074219-.542969.0625-.792969-.488281-9.015625-2.4375-13.492188-4.503906-18.230469-2.324219-5.335938-4.730469-10.859375-5.199219-21.949219-.46875-11.09375 1.460938-16.796875 3.328125-22.3125 1.707031-5.042969 3.320313-9.808593 2.914063-19.410156-.40625-9.597656-2.417969-14.207031-4.542969-19.089844-2.324219-5.335937-4.730469-10.855469-5.199219-21.945312-.46875-11.089844 1.460938-16.792969 3.328125-22.308594 1.707031-5.042969 3.320313-9.804687 2.914063-19.40625-.40625-9.597656-2.417969-14.207031-4.542969-19.089844-2.324219-5.335937-4.730469-10.855469-5.199219-21.945312-.472656-11.089844 1.457032-16.792969 3.324219-22.308594 1.710937-5.042969 3.320313-9.804687 2.914063-19.40625-.066407-1.65625-.191407-3.199219-.367188-4.714844-.132812-1.132812.226562-2.269531.984375-3.121093.761719-.851563 1.847656-1.339844 2.988281-1.339844h150.039063c1.339843 0 2.59375.671875 3.335937 1.789062.738282 1.117188.875 2.53125.351563 3.765625-.894531 2.121094-1.886719 3.875-2.847657 5.574219-2.195312 3.878906-4.09375 7.230469-4.582031 14.601562-.488281 7.359376.949219 10.921876 2.613281 15.050782 1.773438 4.398437 3.78125 9.386718 3.167969 18.574218-.609375 9.191407-3.261719 13.867188-5.601562 17.992188-2.195313 3.875-4.089844 7.214844-4.578125 14.578125-.488282 7.363281.945312 10.925781 2.609375 15.050781 1.773437 4.402344 3.785156 9.386719 3.171875 18.574219-.609375 9.1875-3.261719 13.863281-5.601563 17.992187-2.195312 3.871094-4.089843 7.214844-4.582031 14.582032-.488281 7.363281.949219 10.925781 2.613281 15.054687 1.773438 4.402344 3.78125 9.390625 3.171875 18.578125-.609375 9.191406-3.261718 13.867188-5.601562 17.996094-2.199219 3.875-4.09375 7.21875-4.582032 14.582031-.488281 7.367188.945313 10.929688 2.609376 15.058594 1.488281 3.691406 3.171874 7.875 3.28125 14.597656.015624.988281.5625 1.945313 1.429687 2.5l37.285156 23.800781c12.789063 8.160157 20.375 22.089844 20.300781 37.257813-.023437 6.003906-5.003906 10.890625-11.101562 10.890625zm-182.546875-320.441406c.015625.277344.027344.554687.039063.835937.46875 11.089844-1.457032 16.792969-3.328126 22.308594-1.707031 5.042969-3.316406 9.808594-2.910156 19.40625.402344 9.601563 2.414063 14.207031 4.539063 19.089844 2.328125 5.339843 4.730469 10.859375 5.199219 21.945312.46875 11.089844-1.457032 16.792969-3.328126 22.308594-1.707031 5.042969-3.316406 9.808594-2.910156 19.40625.402344 9.601563 2.414063 14.207031 4.539063 19.089844 2.328125 5.339843 4.734375 10.859375 5.203125 21.949219.46875 11.089843-1.460938 16.792968-3.328125 22.308593-1.707031 5.046875-3.320313 9.808594-2.914063 19.410157.40625 9.601562 2.417969 14.210937 4.542969 19.09375 2.253906 5.179687 4.589844 10.535156 5.152344 20.996093.046875.925781-.019531 1.855469-.203125 2.777344l-7.589844 38.261719c-1.417969 7.128906-.785156 14.480468 1.824219 21.261718.460937 1.191407 1.625 1.988282 2.898437 1.988282h175.121094c1.675781 0 3.097656-1.339844 3.105469-2.929688.058593-12.410156-6.148438-23.800781-16.609375-30.476562l-37.285156-23.800782c-3.144532-2.007812-5.058594-5.414062-5.121094-9.109374-.082032-5.242188-1.296875-8.253907-2.703125-11.742188-1.773438-4.402344-3.78125-9.390625-3.171875-18.578125.609375-9.191406 3.261718-13.871094 5.601562-17.996094 2.199219-3.875 4.09375-7.21875 4.582032-14.582031.488281-7.367188-.949219-10.929688-2.609376-15.058594-1.773437-4.402344-3.785156-9.390625-3.171874-18.578125.609374-9.1875 3.261718-13.867187 5.601562-17.996093 2.195312-3.871094 4.089844-7.210938 4.582031-14.578126.488281-7.359374-.949219-10.925781-2.613281-15.050781-1.773438-4.398437-3.785156-9.386719-3.171875-18.570312.609375-9.1875 3.261719-13.867188 5.601563-17.992188 2.195312-3.871093 4.089843-7.214843 4.578124-14.578125.492188-7.363281-.945312-10.925781-2.605468-15.054687-1.777344-4.398438-3.785156-9.386719-3.175782-18.574219.570313-8.59375 2.929688-13.25 5.140626-17.195312h-139.101563zm0 0"/></g></svg>