<?xml version="1.0" encoding="iso-8859-1"?>
<!-- Generator: Adobe Illustrator 19.0.0, SVG Export Plug-In . SVG Version: 6.00 Build 0)  -->
<svg version="1.1" id="Capa_1" xmlns="http://www.w3.org/2000/svg" xmlns:xlink="http://www.w3.org/1999/xlink" x="0px" y="0px"
	 viewBox="0 0 512.834 512.834" style="enable-background:new 0 0 512.834 512.834;" xml:space="preserve">
<g>
	<g>
		<g>
			<path d="M448.834,384.417c-74.175,0.233-143.169-38.003-182.288-101.024l-9.712-15.568V0.417h-32v276.592l14.592,23.344
				c44.933,72.405,124.194,116.335,209.408,116.064c17.673,0,32,14.327,32,32c0,17.673-14.327,32-32,32H80.002
				c-26.51-0.005-47.996-21.499-47.992-48.009c0.001-3.375,0.357-6.74,1.063-10.039l31.408-146.592l0.352-147.36h-32v142.4
				L1.794,415.649c-9.261,43.201,18.254,85.73,61.455,94.991c5.506,1.18,11.122,1.776,16.753,1.777h368.832
				c35.346,0,64-28.654,64-64C512.834,413.071,484.18,384.417,448.834,384.417z"/>
			<path d="M109.585,447.36c3.287,0.701,6.639,1.056,10.001,1.057h67.104v-32h-67.104c-8.837-0.002-15.999-7.166-15.997-16.003
				c0-1.167,0.128-2.33,0.381-3.469l8.528-41.328l-31.328-6.4l-8.512,41.184C67.126,416.327,83.659,441.828,109.585,447.36z"/>
			<rect x="32.834" y="0.417" width="32" height="32"/>
			<rect x="32.834" y="64.417" width="32" height="32"/>
		</g>
	</g>
</g>
<g>
</g>
<g>
</g>
<g>
</g>
<g>
</g>
<g>
</g>
<g>
</g>
<g>
</g>
<g>
</g>
<g>
</g>
<g>
</g>
<g>
</g>
<g>
</g>
<g>
</g>
<g>
</g>
<g>
</g>
</svg>
